<?xml version="1.0" encoding="utf-8"?>
<!-- Generator: Adobe Illustrator 21.0.0, SVG Export Plug-In . SVG Version: 6.00 Build 0)  -->
<svg version="1.1" id="圖層_1" xmlns="http://www.w3.org/2000/svg" xmlns:xlink="http://www.w3.org/1999/xlink" x="0px" y="0px"
	 viewBox="0 0 261.6 132.7" style="enable-background:new 0 0 261.6 132.7;" xml:space="preserve">
<style type="text/css">
	.st0{enable-background:new    ;}
	.st1{fill:#62E9E9;}
</style>
<g class="st0">
	<path class="st1" d="M16.9,5.5h12.8l23.9,66.9l9.1,25.5h0.6c3-8.5,5.7-17.1,8.6-25.5L95.9,5.5h12.8v116.4h-9.1V48.1
		c0-9.6,0.6-22.3,1.1-32.1h-0.6L91,42l-24.4,67.4h-7.7L34.3,42l-9.1-26h-0.6c0.5,9.7,1.1,22.5,1.1,32.1v73.8h-8.8V5.5z"/>
	<path class="st1" d="M142.6,5.5h9.6v116.4h-9.6V5.5z"/>
	<path class="st1" d="M177.2,106.5l5.9-6.7c8.5,9.6,20.4,15.5,33.7,15.5c17.2,0,27.9-9.1,27.9-22.3c0-14-9.1-18.5-20.6-23.6
		l-17.4-7.7c-10.4-4.6-23.6-12-23.6-29.1c0-17.2,14.7-29.2,34.5-29.2c14,0,25.5,6.1,32.9,14l-5.4,6.2c-6.9-7-16-11.7-27.5-11.7
		c-14.8,0-24.7,7.8-24.7,19.8c0,13.2,11.3,18.2,19.8,21.9l17.4,7.7c13.3,5.9,24.4,13.3,24.4,31c0,17.9-14.8,31.6-37.7,31.6
		C199.9,123.9,186.5,116.9,177.2,106.5z"/>
</g>
</svg>
