<?xml version="1.0" encoding="utf-8"?>
<!-- Generator: Adobe Illustrator 21.0.0, SVG Export Plug-In . SVG Version: 6.00 Build 0)  -->
<svg version="1.1" id="Layer_1" xmlns="http://www.w3.org/2000/svg" xmlns:xlink="http://www.w3.org/1999/xlink" x="0px" y="0px"
	 viewBox="0 0 612 523.7" style="enable-background:new 0 0 612 523.7;" xml:space="preserve">
<style type="text/css">
	.st0{fill:#FFFFFF;}
	.st1{fill:#005EAE;}
	.st2{fill:#FFE100;}
	.st3{fill:#D4003B;}
</style>
<g>
	<path class="st0" d="M40.3,25.1h529.3L307.9,478.2L40.3,25.1z"/>
	<path class="st1" d="M0,0l307.1,523.7L612,0L0,0L0,0z M40.3,25.1h529.3L307.9,478.2L40.3,25.1z"/>
	<path class="st2" d="M40.3,25.1l171.8,291l0,0c5.7-3.1,13.5-6.6,21.7-7.4c15.8-1.6,30.5,5.9,42.3,5.5s18.9-8,30.3-8
		s22.3,9.4,39.6,9.4s26.6-6.3,37.6-6.3c6.5,0,13.6,2.7,18.6,4.9l0,0L569.7,24.8H40.3V25.1z"/>
	<path d="M413.6,252.5v-49h39.5v-17.3H427v-15.5h26.3V161h21.2v-19.8h-79.2v-12.5h-20.6v-10.1h-20.2v-12.4H257v12.4h-20.2v10.1
		h-20.6v12.5h-77.7V161h21.2v9.7h25.9v15.5h-25.9v17.3h38.8v49h-24l10.2,17.3h13.9v23.5l13.6,23.1c5.7-3.1,13.5-6.6,21.7-7.4
		c15.8-1.6,24.5,7,36.4,6.6c11.9-0.4,24.1-7,35.6-7c11.5,0,22.9,7.6,40.3,7.6c17.4,0,23.6-5.4,34.7-5.4c6.5,0,14,2.2,21.4,3.9
		l11.2-19.3v-25.6h14.8l10-17.3h-24.8V252.5z M229.1,303.6c-3.9,0.4-7.7,1.5-11.2,2.6V203.4h11.2V303.6z M269.7,289.8h-21.2v-8.6
		h21.2V289.8z M315.8,289.8h-22.4v-8.6h22.3v8.6H315.8z M361.8,289.8h-22.3v-8.6h22.3V289.8z M361.8,258.9h-7.1
		c-6.5-16.2-20.6-28.5-37.9-32.5V215h26.6l-37.1-27.6L269.6,215h26.6v10.8c-18.9,3-34.5,15.9-41.4,33.2h-6.3v-72.3h15.8v-15.1h83.7
		v15.1h13.6v72.3H361.8z M394.2,304.9c-2.2-0.4-4.3-0.7-6.5-0.7c-2.2,0-4.3,0.3-6.5,0.5V203.5h12.9L394.2,304.9L394.2,304.9z"/>
	<path class="st1" d="M297.9,436.3c-3.6,1.3-8.5,3.1-12.3,4.5l8.6,14.6c3.6-1.9,8.4-3.8,12.3-3.8c4.7,0,10.8,2,14.7,3.6l10.4-17.9
		c-3.1-1.3-8.9-1.5-14.3-2.4C310.3,433.6,304.9,433.6,297.9,436.3z M345.9,383.9c-6.5,1.6-11.9,1.1-17.8-1.1
		c-5.9-2.2-12.9-4.9-20-4.9c-7,0-15.1,4.3-22.1,5.9c-7,1.6-14-1.1-20.5-0.5c-3.8,0.3-8.2,2.3-11.3,3.9l10.1,17.1
		c2-1.5,4.6-3.1,7.1-4.3c5.9-2.7,15.6,0,18.9-0.5c3.2-0.5,9.7-4.9,17.3-4.9s11.9,2.7,20,4.9s11.3,0,17.8-1.1c3-0.5,5.8,0,8.1,0.7
		l8.6-15C357.7,383.3,350.6,382.7,345.9,383.9z M336.7,410.4c-7,1.6-14.6,0.5-21-2.2c-6.5-2.7-15.1-1.1-19.4,0.5
		c-4.3,1.6-8.1,1.6-15.6,1.6c-3.6,0-7.8,1.3-11.2,2.8l9.3,15.8c1.1-0.7,2.2-1.2,3.5-1.9c5.4-2.7,10.2-1.1,16.2-2.2
		c5.9-1.1,9.7-3.2,15.6-1.1c5.9,2.2,9.2,1.6,15.1,0.5c2.6-0.5,6.1,0.3,9.2,1.1l9.2-15.8C344.3,409.6,340.3,409.6,336.7,410.4z
		 M341.6,358.1c-4.9,0-14-0.5-23.7-4.9c-9.7-4.3-18.3-1.1-23.7,1.1c-5.4,2.2-11.9,2.7-18.3,1.6c-6.5-1.1-10.8-2.7-22.1-1.1
		c-6.2,0.9-11.9,3.2-15.6,5.3l9.7,16.5c5.4-3.1,13.5-5.9,18.3-5.9c5.9,0,12.9,2.2,24.3,1.1c11.3-1.1,14.6-4.9,24.3-4.3
		s17.8,5.9,25.9,7s14-2.7,18.9-2.7c2.6,0,5.9,1.3,8.6,2.7l9.7-16.9c-3.9-1.3-9.7-3.1-14.6-3.1C355.1,354.3,346.5,358.1,341.6,358.1z
		 M374,323.5c-9.7,0-21,4.9-29.7,4.9s-18.9-0.5-28.6-4.9s-17.3-1.1-25.4,2.2s-15.6,2.2-24.8,0c-9.2-2.2-14-4.3-25.9-2.2
		c-6.9,1.2-14.2,4.3-19.3,6.6l10.9,18.5c4.3-2.6,10.8-5.8,16.5-6.2c9.2-0.5,22.7,2.7,35.1,2.7c12.4,0,15.6-5.9,23.2-5.9
		c7.6,0,20.5,7,34.5,8.1c14,1.1,21-4.3,29.7-4.3c4.6,0,11.2,0.3,14.7,1.9l9.6-16.5C388.9,326.4,380.2,323.5,374,323.5z"/>
	<g>
		<g>
			<path class="st3" d="M101.7,80.9l27.4,55.3l11.5-4.7l-11.7-24.9l34.4-14.2l10.2,25.8l11.5-4.7l-23.6-56.1l-20,7.7l2.4,5.9
				l8.4-3.8l0.9,2.2l-8.2,3l2.4,5.9l8.2-3l0.9,2.2l-8.1,3.1l2.7,6.1l7.8-3.2l1.1,2.4l-12.1,5.1l-4-2l2.4-8.9l0.4-0.1l-0.3-0.1
				l0.1-0.3l-0.4,0.1l-8.8-4.3l2.6-9.4l-7.4,3l-0.9,3.5l-3.5-1.8l-7.4,3l9.3,4.6l-2.4,8.8L127,87l0.3,0.1l-0.1,0.3l0.4-0.1l8.8,4.3
				l-1.1,4.2l-10.1,4.2l-1.2-2.6l5.9-2.3l-2.8-5.8l-5.9,2.3l-1.1-2l5.9-2.2l-2.8-5.8l-5.9,2.2l-1.1-2l5.8-2.2l-2.8-5.8L101.7,80.9z
				 M137.7,85.9l-3.2-1.6l0.9-3.2l3.2,1.6L137.7,85.9z"/>
			<polygon class="st3" points="132.4,106.9 135.3,113.4 145.4,109.2 145.1,112.2 135.3,116.3 138.1,122 148.3,117.9 150.2,121.6 
				141.6,125 143.6,129.9 164.1,121.6 159.9,113.6 168,110.2 165.7,104.4 157.5,107.8 161.4,101.6 159.4,95.9 			"/>
		</g>
		<path class="st3" d="M213.1,73.2L232,68l-3.6-10.8l-20.2,5.7c-0.1-0.3-0.3-0.5-0.3-0.9c-2.2-6.1-4.3-12.3-4.3-12.3l-13.1,3.8
			c0,0,1.6,5.5,2.4,12.3c0,0.4,0.1,0.9,0.1,1.3l-17.3,4.9l3.9,10.7l13.6-3.8c-0.1,1.2-0.3,2.3-0.7,3.4c-2.8,10.7-8.5,21.4-8.5,21.4
			l12,4.7c0,0,6.9-12.3,9.8-22.8c0,0,12.8,8.1,30.2,14.6l4.5-12C240.6,88.1,219.7,79.4,213.1,73.2z"/>
		<path class="st3" d="M304.1,79l-1.2-10.5l-4.7,0.5l-3.4-20.9l-17,2.3c-0.7-5.4-1.3-9.2-1.3-9.2l-13.1,1.9c0,0,0.7,3.9,1.2,9
			l-16.9,2.3l2.6,19.7l-5.7,0.7l1.8,10.7l15.2-1.8c-3.1,5.4-7,9.7-7,9.7l12.1,6.1c0,0,5.8-5.9,9.4-14.3c3.5,3.2,9.7,8,18.9,11.9
			l6.6-10.1c0,0-7.1-3.2-12.5-6.3L304.1,79z M265.7,72.6l-3.5,0.4l-1.2-9.7l4.7-0.5C265.9,66.4,265.9,69.9,265.7,72.6z M283.7,60.7
			l1.6,9.7l-6.1,0.7c0-3.2-0.1-6.6-0.4-9.8L283.7,60.7z"/>
		<path class="st3" d="M371,51.9l-20.4-1.2l0.4-8.5l-15.6-0.9l-0.5,8.5l-21.7-1.2L311.5,84l21.3,1.2L332,97.6l16.3,1.2l0.4-12.7
			l19.3,1.1L371,51.9z M325,71.3l0.7-10.4l8.5,0.4l-0.7,10.5L325,71.3z M356.7,73.6l-7.3-0.5l0.5-10.8l7.7,0.4L356.7,73.6z"/>
		<path class="st3" d="M435.6,78.1l2.8-11.5L417,61.9l1.9-8.8L405,49.8l-2.7,8.9l-23.6-5.3l-2.4,11.5l8.6,1.9
			c-1.1,3.1-2.8,9.6-4.6,22.4l-8.9-2L369,98.6l59.3,13.2l2.8-11.5l-8.2-1.9c3.8-11.5,5.4-18.3,6.1-22.1L435.6,78.1z M409.2,95.6
			l-15.2-3.4c1.8-12.7,3.5-19.2,4.6-22.4l16.9,3.8C414.6,77.5,412.9,84.3,409.2,95.6z"/>
		<path class="st3" d="M453.8,59.2l-22.4,53.9l56.4,24.8l24.5-54.8L453.8,59.2z M483.2,126.9l-42.1-18.3l17-38.3l43.2,17.3
			L483.2,126.9z"/>
		<polygon class="st3" points="457.7,75.1 454.9,81.2 495.1,97.5 497,91.6 493.7,90.4 493.5,85.6 487,83.5 487,87.3 		"/>
		<path class="st3" d="M454.5,83.6l-7,15.2l16.2,7.4l7-15.8L454.5,83.6z M461.2,99l-6.6-2.8l2.3-5.8l6.9,3.1L461.2,99z"/>
		<polygon class="st3" points="446.1,101.1 463.4,109.1 460.8,114.6 443.8,106.8 		"/>
		<path class="st3" d="M478.5,79.8c0,0-11.1,27.6-12.5,31c-1.5,3.4-2.8,5.3,0.5,6.9c2.3,1.1,14.8,6.9,14.8,6.9l2.7-5.3l-10.5-5
			c0,0-0.9-0.1,0.4-3.8c1.2-3.6,11.2-28.2,11.2-28.2L478.5,79.8z"/>
		<path class="st3" d="M484.8,95.3l7,2.7l-6.2,12.9c0,0-1.3,3.8-5.9,2.7c-4.6-1.1-15.1-4.3-15.1-4.3l2.4-5.7c0,0,8.4,1.9,10.2,2.4
			c1.9,0.5,2.4,0.3,3.5-1.9C481.9,102.1,484.8,95.3,484.8,95.3z"/>
	</g>
</g>
</svg>
